<?xml version="1.0" encoding="UTF-8"?>
<svg id="Layer_1" xmlns="http://www.w3.org/2000/svg" version="1.1" viewBox="0 0 248.16 47.61">
  <!-- Generator: Adobe Illustrator 30.1.0, SVG Export Plug-In . SVG Version: 2.1.1 Build 136)  -->
  <defs>
    <style>
      .st0 {
        fill: #2f2c27;
      }
    </style>
  </defs>
  <path class="st0" d="M74.5,22.95c.07-.18.12-.37.15-.57.03-.2.04-.42.04-.65v-3.6c0-.73-.18-1.39-.55-1.99-.37-.6-.85-1.07-1.44-1.43-.6-.36-1.25-.53-1.96-.53h-14.52v19.22h15.24c.73,0,1.39-.18,1.99-.53.6-.36,1.08-.84,1.44-1.44.36-.6.55-1.26.55-1.98v-3.98c0-.44-.09-.89-.27-1.33-.18-.44-.4-.84-.67-1.17ZM60.35,18.34h10.14v3.2h-10.14v-3.2ZM71.24,29.23h-10.89v-3.52h10.89v3.52Z"/>
  <polygon class="st0" points="89.12 21.94 82.61 14.17 78.34 14.17 78.34 33.39 82.48 33.39 82.48 20.52 89.12 28.4 95.74 20.5 95.74 33.39 99.91 33.39 99.91 14.17 95.61 14.17 89.12 21.94"/>
  <polygon class="st0" points="110.74 18.34 118.27 18.34 118.27 33.39 122.44 33.39 122.44 18.34 129.96 18.34 129.96 14.17 110.74 14.17 110.74 18.34"/>
  <rect class="st0" x="132.87" y="14.18" width="4.14" height="4.21"/>
  <rect class="st0" x="147.9" y="14.18" width="4.19" height="4.21"/>
  <path class="st0" d="M147.9,20.67h4.19v8.77c0,.72-.19,1.37-.55,1.98-.37.6-.85,1.08-1.44,1.44-.6.36-1.25.53-1.96.53h-11.32c-.71,0-1.37-.17-1.98-.53-.6-.36-1.08-.84-1.44-1.44-.35-.61-.53-1.26-.53-1.98v-8.77h4.14v8.56h10.89v-8.56Z"/>
  <path class="st0" d="M172.21,14.78c-.6-.36-1.26-.53-1.99-.53h-15.24v19.19h4.14v-6.3h5.48s5.3,6.3,5.3,6.3h4.27v-1.41l-4.16-4.91h.21c.73,0,1.39-.18,1.99-.53.6-.36,1.08-.84,1.44-1.44.36-.6.55-1.26.55-1.97v-4.97c0-.71-.18-1.37-.55-1.97-.37-.6-.84-1.09-1.44-1.44ZM170.01,22.95h-10.89v-4.56h10.89v4.56Z"/>
  <polygon class="st0" points="185.01 21.7 181.25 21.7 181.25 14.17 177.08 14.17 177.08 33.39 181.25 33.39 181.25 25.86 185.01 25.86 191.31 33.39 195.64 33.39 195.64 31.95 188.78 23.78 195.64 15.61 195.64 14.17 191.31 14.17 185.01 21.7"/>
  <rect class="st0" x="198.54" y="14.18" width="4.09" height="4.21"/>
  <rect class="st0" x="198.54" y="20.67" width="4.09" height="12.72"/>
  <polygon class="st0" points="216.51 21.75 210.48 14.17 205.54 14.17 214.43 26.21 214.43 33.39 218.59 33.39 218.59 26.24 227.5 14.17 222.51 14.17 216.51 21.75"/>
  <polygon class="st0" points="248.16 18.34 248.16 14.17 230.41 14.17 230.41 33.39 248.16 33.39 248.16 29.23 234.6 29.23 234.6 25.86 245.52 25.86 245.52 21.7 234.6 21.7 234.6 18.34 248.16 18.34"/>
  <path class="st0" d="M34.89.15c-1.46,0-2.93.23-4.37.69-.76.24-4.46.53-4.92.53-3.86,0-8.14-.58-10.85-1.12-.81-.16-1.63-.24-2.45-.24-3.07,0-6.03,1.16-8.35,3.26C1.35,5.61-.09,9.1,0,12.82c.15,6.34,1.91,12.75,3.78,19.55.63,2.28,1.27,4.64,1.88,7.05.89,3.54,2.14,5.79,3.94,7.05,1.07.75,2.28,1.13,3.61,1.13.93,0,1.92-.19,2.94-.57,3.14-1.15,7.06-3.87,9.37-5.6,3.01,4.13,5.86,6.14,8.7,6.14h0s.1,0,.15,0c4.85-.11,6.56-4.71,7.42-8.16.18-.74.38-1.52.59-2.35,1.88-7.45,4.45-17.66,5.06-24.21.29-3.12-.74-6.16-2.92-8.55C42.11,1.66,38.6.15,34.89.15ZM39.21,32.8c-.55,2.01-1.07,3.92-1.49,5.61-.83,3.31-1.98,4.98-3.43,4.98-1.01,0-2.76-.8-5.47-4.55,4.72-3.92,8.92-8.22,12.07-12.34-.54,2.13-1.12,4.24-1.68,6.31ZM36.75,25.07c-4.71,5.74-10.82,10.95-14.97,13.91-.1.07-.23.16-.38.27-1.04.75-3.21,2.32-5.04,3.26-1.04.54-2,.81-2.86.81-.93,0-1.69-.33-2.14-.93-.63-.83-1.18-2.18-1.64-3.99-.41-1.65-.93-3.55-1.48-5.56-1.29-4.72-2.75-10.07-3.52-14.65-.55-3.28-.55-4.69-.54-5.36,0-.1,0-.19,0-.27-.05-2.46.87-4.66,2.57-6.2,1.55-1.4,3.52-2.17,5.55-2.17.54,0,1.08.05,1.62.16,2.53.51,5.53.89,8.29,1.08-1.45,1-2.56,1.62-4,1.62-.5,0-1.04-.07-1.63-.23-.17-.04-.35-.07-.52-.07-.96,0-1.79.65-2.03,1.58-.29,1.12.39,2.27,1.51,2.55,1,.26,1.91.38,2.78.38,2.75,0,4.6-1.27,6.74-2.73,2.19-1.5,4.67-3.19,8.85-4.14.34-.03.68-.05,1.01-.05,3.64,0,6.8,1.99,7.88,4.95,1.75,4.82-2.32,11.23-6.05,15.77Z"/>
</svg>